<svg width="131" height="37" viewBox="0 0 131 37" fill="none" xmlns="http://www.w3.org/2000/svg">
<path d="M14.136 2.56C16.376 2.56 18.3493 3.09333 20.056 4.16C21.784 5.20533 23.1173 6.66667 24.056 8.544C25.016 10.4213 25.496 12.544 25.496 14.912C25.496 17.344 24.7707 19.5947 23.32 21.664C21.8907 23.712 20.1093 25.344 17.976 26.56C15.8427 27.7547 13.8053 28.352 11.864 28.352C10.84 28.352 9.848 28.2987 8.888 28.192C7.224 28.0853 5.96533 28.032 5.112 28.032H0.856V26.88L3.864 24.512V5.376L0.472 4.288L1.208 2.848H5.08C7.08533 2.848 9.048 2.784 10.968 2.656C12.4187 2.57066 13.4747 2.528 14.136 2.528V2.56ZM12.76 25.824C14.2533 25.824 15.608 25.4187 16.824 24.608C18.04 23.7973 19 22.6773 19.704 21.248C20.408 19.7973 20.76 18.176 20.76 16.384C20.76 14.2293 20.4293 12.2773 19.768 10.528C19.1067 8.75733 18.0933 7.34933 16.728 6.304C15.3627 5.25867 13.6667 4.736 11.64 4.736C10.3813 4.736 9.24 5.09867 8.216 5.824V25.088C9.51733 25.6 11.032 25.856 12.76 25.856V25.824ZM38.473 28H29.321V26.848L32.169 24.576V15.616L29.321 13.664V12.512L34.953 10.336H36.329V25.504L39.209 26.56L38.473 28ZM34.121 0.735998C34.825 0.735998 35.401 0.991998 35.849 1.504C36.297 1.99466 36.521 2.60266 36.521 3.328C36.521 3.84 36.361 4.33067 36.041 4.8C35.721 5.248 35.3157 5.61067 34.825 5.888C34.3343 6.144 33.8543 6.272 33.385 6.272C32.7023 6.272 32.137 6.02667 31.689 5.536C31.241 5.04533 31.017 4.42667 31.017 3.68C31.017 3.168 31.177 2.688 31.497 2.24C31.817 1.77067 32.2223 1.408 32.713 1.152C33.2037 0.874665 33.673 0.735998 34.121 0.735998ZM56.1555 13.408C56.7315 14.2613 57.0195 15.168 57.0195 16.128C57.0195 17.5147 56.4542 18.8373 55.3235 20.096C54.1928 21.3333 52.8168 22.2187 51.1955 22.752C50.6408 23.3493 50.3635 23.968 50.3635 24.608C50.3635 24.9493 50.6195 25.2693 51.1315 25.568C51.6435 25.8453 52.4648 26.2187 53.5955 26.688C55.0888 27.2853 56.2515 27.84 57.0835 28.352C57.9155 28.864 58.3315 29.4827 58.3315 30.208C58.3315 30.8693 57.9155 31.7013 57.0835 32.704C56.2515 33.7067 55.2168 34.5813 53.9795 35.328C52.7635 36.0747 51.5902 36.448 50.4595 36.448C49.2222 36.448 47.7715 36.2453 46.1075 35.84C44.4648 35.4347 43.0888 35.0293 41.9795 34.624V29.536H43.3555C44.5288 31.008 45.7128 32.1173 46.9075 32.864C48.1022 33.632 49.4568 34.016 50.9715 34.016C51.5475 34.016 52.0595 33.9093 52.5075 33.696C52.9768 33.4827 53.3395 33.2053 53.5955 32.864C53.8515 32.544 53.9795 32.2347 53.9795 31.936C53.9795 31.3813 53.6488 30.9013 52.9875 30.496C52.3475 30.0907 51.3555 29.5893 50.0115 28.992C48.7102 28.4373 47.7288 27.9573 47.0675 27.552C46.4062 27.1253 46.0755 26.6453 46.0755 26.112C46.0755 25.6 46.4168 25.0773 47.0995 24.544C47.8035 24.0107 48.6355 23.5413 49.5955 23.136C49.1262 23.1787 48.7742 23.2 48.5395 23.2C47.3875 23.2 46.3208 22.9547 45.3395 22.464C44.3795 21.952 43.6115 21.28 43.0355 20.448C42.4808 19.5947 42.2035 18.6773 42.2035 17.696C42.2035 16.5227 42.6195 15.392 43.4515 14.304C44.2835 13.1947 45.3608 12.3093 46.6835 11.648C48.0062 10.9653 49.3502 10.624 50.7155 10.624C52.2728 10.624 53.6275 11.0507 54.7795 11.904H59.8675L59.8035 13.408H56.1555ZM50.3315 20.352C51.2275 20.352 51.9102 20.128 52.3795 19.68C52.8702 19.232 53.1155 18.56 53.1155 17.664C53.1155 16.4267 52.7208 15.4347 51.9315 14.688C51.1422 13.9413 50.0968 13.568 48.7955 13.568C46.9608 13.568 46.0435 14.432 46.0435 16.16C46.0435 17.4187 46.4382 18.432 47.2275 19.2C48.0168 19.968 49.0515 20.352 50.3315 20.352ZM71.5043 28H62.3523V26.848L65.2003 24.576V15.616L62.3523 13.664V12.512L67.9843 10.336H69.3603V25.504L72.2403 26.56L71.5043 28ZM67.1523 0.735998C67.8563 0.735998 68.4323 0.991998 68.8802 1.504C69.3283 1.99466 69.5523 2.60266 69.5523 3.328C69.5523 3.84 69.3923 4.33067 69.0723 4.8C68.7523 5.248 68.3469 5.61067 67.8563 5.888C67.3656 6.144 66.8856 6.272 66.4163 6.272C65.7336 6.272 65.1683 6.02667 64.7203 5.536C64.2723 5.04533 64.0483 4.42667 64.0483 3.68C64.0483 3.168 64.2083 2.688 64.5283 2.24C64.8483 1.77067 65.2536 1.408 65.7443 1.152C66.2349 0.874665 66.7043 0.735998 67.1523 0.735998ZM84.3548 28.064C83.8214 28.2347 83.1708 28.32 82.4028 28.32C80.5681 28.32 79.2241 27.8613 78.3708 26.944C77.5388 26.0053 77.1228 24.5653 77.1228 22.624V13.376H73.6668V12L79.9068 4.832H81.2828V11.904H87.0428V13.376H81.2828V22.88C81.2828 24.5653 82.1148 25.408 83.7788 25.408C84.2268 25.408 84.6534 25.3227 85.0588 25.152C85.4641 24.96 85.9868 24.6293 86.6268 24.16L87.5868 25.504L84.3548 28.064ZM100.68 28.032C99.7629 28.224 98.6536 28.32 97.3523 28.32C95.9229 28.32 94.6323 27.9573 93.4803 27.232C92.3496 26.4853 91.4536 25.4827 90.7923 24.224C90.1523 22.9653 89.8323 21.568 89.8323 20.032C89.8323 18.368 90.3336 16.8213 91.3363 15.392C92.3603 13.9413 93.6403 12.7893 95.1763 11.936C96.7123 11.0613 98.1949 10.624 99.6243 10.624C101.694 10.624 103.294 11.4347 104.424 13.056C105.576 14.6773 106.142 16.8427 106.12 19.552H94.3443C94.4936 21.2587 94.9843 22.656 95.8163 23.744C96.6483 24.8107 97.7789 25.344 99.2083 25.344C100.616 25.344 102.622 24.3413 105.224 22.336L106.184 23.648L100.68 28.032ZM97.8003 13.536C95.6029 13.536 94.4509 15.0507 94.3443 18.08H101.544C101.352 16.992 101.15 16.1493 100.936 15.552C100.744 14.9547 100.403 14.4747 99.9123 14.112C99.4216 13.728 98.7069 13.536 97.7683 13.536H97.8003ZM119.288 26.592L118.552 28.032H109.4V26.88L112.248 24.608V5.344L109.4 3.36V2.208L115.032 0.0639992H116.408V25.536L119.288 26.592ZM129.528 28.032H123.864L118.008 19.552L123.928 14.624L120.696 12.416L121.4 10.976H129.368V12.128L122.072 18.24L127.256 25.472L130.232 26.592L129.528 28.032Z" fill="black"/>
</svg>
