<svg width="141" height="141" viewBox="0 0 141 141" fill="none" xmlns="http://www.w3.org/2000/svg">
<path d="M93.9451 29.375H129.081" stroke="black" stroke-width="2" stroke-linecap="round" stroke-linejoin="round"/>
<path d="M111.513 11.75V47" stroke="black" stroke-width="2" stroke-linecap="round" stroke-linejoin="round"/>
<path d="M123.225 67.5625V111.625C123.225 114.741 121.991 117.73 119.795 119.934C117.598 122.137 114.619 123.375 111.513 123.375H29.5291C26.4229 123.375 23.4439 122.137 21.2475 119.934C19.0511 117.73 17.8171 114.741 17.8171 111.625V29.375C17.8171 26.2587 19.0511 23.27 21.2475 21.0665C23.4439 18.8629 26.4229 17.625 29.5291 17.625H73.449" stroke="black" stroke-width="2" stroke-linecap="round" stroke-linejoin="round"/>
<path d="M123.225 88.1249L105.153 69.9947C102.957 67.7919 99.9787 66.5544 96.8731 66.5544C93.7675 66.5544 90.7891 67.7919 88.5928 69.9947L35.3853 123.375" stroke="black" stroke-width="2" stroke-linecap="round" stroke-linejoin="round"/>
<path d="M52.9532 64.625C59.4215 64.625 64.6652 59.3643 64.6652 52.875C64.6652 46.3857 59.4215 41.125 52.9532 41.125C46.4848 41.125 41.2412 46.3857 41.2412 52.875C41.2412 59.3643 46.4848 64.625 52.9532 64.625Z" stroke="black" stroke-width="2" stroke-linecap="round" stroke-linejoin="round"/>
</svg>
