<svg width="24" height="24" viewBox="0 0 24 24" fill="none" xmlns="http://www.w3.org/2000/svg">
<path d="M23.3896 3.09119H19.6418C18.9265 3.09119 18.2138 3.63048 18.0192 4.31897L17.0069 7.90204C16.8911 7.86981 16.7692 7.85117 16.6424 7.85117H8.11965C7.70813 6.01638 6.06721 4.64095 4.11008 4.64095C1.84375 4.64095 0 6.48478 0 8.75095C0 10.8247 1.54431 12.5439 3.54311 12.821C3.54222 12.8478 3.54238 12.8748 3.54507 12.9022L3.7575 15.0556C3.83278 15.8185 4.49221 16.416 5.25883 16.416H14.6564C15.3748 16.416 16.0845 15.8727 16.272 15.1793L17.4472 10.8333L17.4473 10.833L19.1939 4.65096C19.2414 4.48322 19.4673 4.31213 19.6418 4.31213H23.3895C23.7266 4.31213 23.9999 4.0389 23.9999 3.7017C23.9999 3.3645 23.7267 3.09119 23.3896 3.09119ZM1.22086 8.75095C1.22086 7.15789 2.51693 5.86182 4.11008 5.86182C5.70323 5.86182 6.99922 7.15789 6.99922 8.75095C6.99922 10.344 5.70315 11.6401 4.11008 11.6401C2.51702 11.6401 1.22086 10.3441 1.22086 8.75095ZM15.0936 14.8606C15.0487 15.0263 14.8281 15.1952 14.6564 15.1952H5.25883C5.12486 15.1952 4.98569 15.0691 4.9725 14.9357L4.76267 12.8085C6.61627 12.5115 8.05876 10.9707 8.20633 9.07204H16.6423C16.6482 9.07204 16.6535 9.07228 16.658 9.07261C16.6572 9.07717 16.656 9.08229 16.6545 9.08791L15.0936 14.8606Z" fill="#000002"/>
<path d="M7.04066 17.1113C5.99372 17.1113 5.14197 17.9631 5.14197 19.01C5.14197 20.0569 5.99372 20.9087 7.04066 20.9087C8.08759 20.9087 8.93943 20.0569 8.93943 19.01C8.93943 17.9631 8.08759 17.1113 7.04066 17.1113ZM7.04066 19.6878C6.66691 19.6878 6.36283 19.3838 6.36283 19.01C6.36283 18.6363 6.66691 18.3322 7.04066 18.3322C7.4144 18.3322 7.71856 18.6363 7.71856 19.01C7.71856 19.3838 7.4144 19.6878 7.04066 19.6878Z" fill="#000002"/>
<path d="M13.061 17.1113C12.014 17.1113 11.1623 17.9631 11.1623 19.01C11.1623 20.0569 12.014 20.9087 13.061 20.9087C14.1079 20.9087 14.9597 20.0569 14.9597 19.01C14.9597 17.9631 14.1079 17.1113 13.061 17.1113ZM13.061 19.6878C12.6872 19.6878 12.3832 19.3838 12.3832 19.01C12.3832 18.6363 12.6872 18.3322 13.061 18.3322C13.4347 18.3322 13.7388 18.6363 13.7388 19.01C13.7388 19.3838 13.4347 19.6878 13.061 19.6878Z" fill="#000002"/>
<path d="M3.76909 9.30111L4.72031 9.30119H5.62196C5.95908 9.30119 6.23239 9.02796 6.23239 8.69076C6.23239 8.35356 5.95908 8.08033 5.62196 8.08033H4.72031L4.6355 8.0802C4.33414 8.0803 4.33709 8.0802 3.99997 8.0802C3.66285 8.0802 3.85197 8.0802 3.61088 8.08032L3.49945 8.08025H2.59804C2.26092 8.08025 1.98761 8.35348 1.98761 8.69068C1.98761 9.02788 2.26092 9.30111 2.59804 9.30111H3.49945H3.76909C4.15333 9.30112 3.8162 9.30112 4.15333 9.30112C4.49045 9.30112 4.15333 9.30112 3.76909 9.30111Z" fill="#000002"/>
</svg>
