<svg width="147" height="42" viewBox="0 0 147 42" fill="none" xmlns="http://www.w3.org/2000/svg">
<path d="M16.028 3.38C18.548 3.38 20.768 3.98 22.688 5.18C24.632 6.356 26.132 8 27.188 10.112C28.268 12.224 28.808 14.612 28.808 17.276C28.808 20.012 27.992 22.544 26.36 24.872C24.752 27.176 22.748 29.012 20.348 30.38C17.948 31.724 15.656 32.396 13.472 32.396C12.32 32.396 11.204 32.336 10.124 32.216C8.252 32.096 6.836 32.036 5.876 32.036H1.088V30.74L4.472 28.076V6.548L0.656 5.324L1.484 3.704H5.84C8.096 3.704 10.304 3.632 12.464 3.488C14.096 3.392 15.284 3.344 16.028 3.344V3.38ZM14.48 29.552C16.16 29.552 17.684 29.096 19.052 28.184C20.42 27.272 21.5 26.012 22.292 24.404C23.084 22.772 23.48 20.948 23.48 18.932C23.48 16.508 23.108 14.312 22.364 12.344C21.62 10.352 20.48 8.768 18.944 7.592C17.408 6.416 15.5 5.828 13.22 5.828C11.804 5.828 10.52 6.236 9.368 7.052V28.724C10.832 29.3 12.536 29.588 14.48 29.588V29.552ZM43.4071 32H33.1111V30.704L36.3151 28.148V18.068L33.1111 15.872V14.576L39.4471 12.128H40.9951V29.192L44.2351 30.38L43.4071 32ZM38.5111 1.328C39.3031 1.328 39.9511 1.616 40.4551 2.192C40.9591 2.744 41.2111 3.428 41.2111 4.244C41.2111 4.82 41.0311 5.372 40.6711 5.9C40.3111 6.404 39.8551 6.812 39.3031 7.124C38.7511 7.412 38.2111 7.556 37.6831 7.556C36.9151 7.556 36.2791 7.28 35.7751 6.728C35.2711 6.176 35.0191 5.48 35.0191 4.64C35.0191 4.064 35.1991 3.524 35.5591 3.02C35.9191 2.492 36.3751 2.084 36.9271 1.796C37.4791 1.484 38.0071 1.328 38.5111 1.328ZM63.2999 15.584C63.9479 16.544 64.2719 17.564 64.2719 18.644C64.2719 20.204 63.6359 21.692 62.3639 23.108C61.0919 24.5 59.5439 25.496 57.7199 26.096C57.0959 26.768 56.7839 27.464 56.7839 28.184C56.7839 28.568 57.0719 28.928 57.6479 29.264C58.2239 29.576 59.1479 29.996 60.4199 30.524C62.0999 31.196 63.4079 31.82 64.3439 32.396C65.2799 32.972 65.7479 33.668 65.7479 34.484C65.7479 35.228 65.2799 36.164 64.3439 37.292C63.4079 38.42 62.2439 39.404 60.8519 40.244C59.4839 41.084 58.1639 41.504 56.8919 41.504C55.4999 41.504 53.8679 41.276 51.9959 40.82C50.1479 40.364 48.5999 39.908 47.3519 39.452V33.728H48.8999C50.2199 35.384 51.5519 36.632 52.8959 37.472C54.2399 38.336 55.7639 38.768 57.4679 38.768C58.1159 38.768 58.6919 38.648 59.1959 38.408C59.7239 38.168 60.1319 37.856 60.4199 37.472C60.7079 37.112 60.8519 36.764 60.8519 36.428C60.8519 35.804 60.4799 35.264 59.7359 34.808C59.0159 34.352 57.8999 33.788 56.3879 33.116C54.9239 32.492 53.8199 31.952 53.0759 31.496C52.3319 31.016 51.9599 30.476 51.9599 29.876C51.9599 29.3 52.3439 28.712 53.1119 28.112C53.9039 27.512 54.8399 26.984 55.9199 26.528C55.3919 26.576 54.9959 26.6 54.7319 26.6C53.4359 26.6 52.2359 26.324 51.1319 25.772C50.0519 25.196 49.1879 24.44 48.5399 23.504C47.9159 22.544 47.6039 21.512 47.6039 20.408C47.6039 19.088 48.0719 17.816 49.0079 16.592C49.9439 15.344 51.1559 14.348 52.6439 13.604C54.1319 12.836 55.6439 12.452 57.1799 12.452C58.9319 12.452 60.4559 12.932 61.7519 13.892H67.4759L67.4039 15.584H63.2999ZM56.7479 23.396C57.7559 23.396 58.5239 23.144 59.0519 22.64C59.6039 22.136 59.8799 21.38 59.8799 20.372C59.8799 18.98 59.4359 17.864 58.5479 17.024C57.6599 16.184 56.4839 15.764 55.0199 15.764C52.9559 15.764 51.9239 16.736 51.9239 18.68C51.9239 20.096 52.3679 21.236 53.2559 22.1C54.1439 22.964 55.3079 23.396 56.7479 23.396ZM80.5673 32H70.2713V30.704L73.4753 28.148V18.068L70.2713 15.872V14.576L76.6073 12.128H78.1553V29.192L81.3953 30.38L80.5673 32ZM75.6713 1.328C76.4633 1.328 77.1113 1.616 77.6153 2.192C78.1193 2.744 78.3713 3.428 78.3713 4.244C78.3713 4.82 78.1913 5.372 77.8313 5.9C77.4713 6.404 77.0153 6.812 76.4633 7.124C75.9113 7.412 75.3713 7.556 74.8433 7.556C74.0753 7.556 73.4393 7.28 72.9353 6.728C72.4313 6.176 72.1793 5.48 72.1793 4.64C72.1793 4.064 72.3593 3.524 72.7193 3.02C73.0793 2.492 73.5353 2.084 74.0873 1.796C74.6393 1.484 75.1673 1.328 75.6713 1.328ZM95.0241 32.072C94.4241 32.264 93.6921 32.36 92.8281 32.36C90.7641 32.36 89.2521 31.844 88.2921 30.812C87.3561 29.756 86.8881 28.136 86.8881 25.952V15.548H83.0001V14L90.0201 5.936H91.5681V13.892H98.0481V15.548H91.5681V26.24C91.5681 28.136 92.5041 29.084 94.3761 29.084C94.8801 29.084 95.3601 28.988 95.8161 28.796C96.2721 28.58 96.8601 28.208 97.5801 27.68L98.6601 29.192L95.0241 32.072ZM113.39 32.036C112.358 32.252 111.11 32.36 109.646 32.36C108.038 32.36 106.586 31.952 105.29 31.136C104.018 30.296 103.01 29.168 102.266 27.752C101.546 26.336 101.186 24.764 101.186 23.036C101.186 21.164 101.75 19.424 102.878 17.816C104.03 16.184 105.47 14.888 107.198 13.928C108.926 12.944 110.594 12.452 112.202 12.452C114.53 12.452 116.33 13.364 117.602 15.188C118.898 17.012 119.534 19.448 119.51 22.496H106.262C106.43 24.416 106.982 25.988 107.918 27.212C108.854 28.412 110.126 29.012 111.734 29.012C113.318 29.012 115.574 27.884 118.502 25.628L119.582 27.104L113.39 32.036ZM110.15 15.728C107.678 15.728 106.382 17.432 106.262 20.84H114.362C114.146 19.616 113.918 18.668 113.678 17.996C113.462 17.324 113.078 16.784 112.526 16.376C111.974 15.944 111.17 15.728 110.114 15.728H110.15ZM134.324 30.416L133.496 32.036H123.2V30.74L126.404 28.184V6.512L123.2 4.28V2.984L129.536 0.571999H131.084V29.228L134.324 30.416ZM145.844 32.036H139.472L132.884 22.496L139.544 16.952L135.908 14.468L136.7 12.848H145.664V14.144L137.456 21.02L143.288 29.156L146.636 30.416L145.844 32.036Z" fill="black"/>
</svg>
